<?xml version="1.0" encoding="UTF-8"?>
<svg id="Layer_1" data-name="Layer 1" xmlns="http://www.w3.org/2000/svg" viewBox="0 0 715.1 715.1">
  <defs>
    <style>
      .cls-1 {
        fill: #fff;
      }

      .cls-1, .cls-2 {
        stroke: #000;
        stroke-miterlimit: 10;
      }

      .cls-2 {
        fill: #7ac9f9;
      }
    </style>
  </defs>
  <path class="cls-1" d="m714.6,357.55c0,22.81-2.14,45.13-6.23,66.75-31.26,165.29-176.44,290.3-350.82,290.3-10.21,0-20.32-.43-30.31-1.27-89.76-7.54-170.08-48.3-228.61-109.94C37.82,539.37.5,452.82.5,357.55c0-88.74,32.38-169.92,85.96-232.37,40.84-47.6,94-84.32,154.53-105.21C277.52,7.35,316.73.5,357.55.5c145.33,0,270.39,86.83,326.1,211.45,19.89,44.46,30.95,93.74,30.95,145.6Z"/>
  <path class="cls-2" d="m708.37,424.3c-31.26,165.29-176.44,290.3-350.82,290.3-10.21,0-20.32-.43-30.31-1.27-17.97-33.85-28.15-72.46-28.15-113.45,0-133.82,108.48-242.3,242.31-242.3,64.72,0,123.52,25.37,166.97,66.72Z"/>
  <path class="cls-2" d="m295.88,365.27c0,118.43-84.96,217.01-197.25,238.12C37.82,539.37.5,452.82.5,357.55c0-88.74,32.38-169.92,85.96-232.37,118.27,16.04,209.42,117.42,209.42,240.09Z"/>
  <path class="cls-2" d="m683.65,211.95c-41.3,74.6-120.81,125.11-212.13,125.11-133.82,0-242.3-108.48-242.3-242.3,0-26.1,4.13-51.24,11.77-74.79C277.52,7.35,316.73.5,357.55.5c145.33,0,270.39,86.83,326.1,211.45Z"/>
</svg>