<?xml version="1.0" encoding="UTF-8"?>
<svg id="Layer_1" data-name="Layer 1" xmlns="http://www.w3.org/2000/svg" viewBox="0 0 478.78 223.16">
  <defs>
    <style>
      .cls-1 {
        fill: #a4d0ff;
        stroke: #000;
        stroke-linecap: round;
        stroke-linejoin: round;
      }

      .cls-2 {
        fill: #3d9dd8;
      }

      .cls-3 {
        fill: #2689d3;
      }
    </style>
  </defs>
  <path class="cls-3" d="m6.92,165.14s20.56-36.85,57.92-51.29c37.36-14.44,71.99-14.9,77.36-1.01,5.37,13.89-20.56,36.85-57.92,51.29-37.36,14.44-77.36,1.01-77.36,1.01Z"/>
  <ellipse class="cls-3" cx="297.22" cy="28.26" rx="36.08" ry="28.26"/>
  <ellipse class="cls-3" cx="212.72" cy="38.78" rx="49.43" ry="28.26" transform="translate(-3.08 52.42) rotate(-13.95)"/>
  <ellipse class="cls-3" cx="288.6" cy="194.9" rx="36.08" ry="28.26"/>
  <ellipse class="cls-3" cx="208.76" cy="184.38" rx="28.26" ry="49.43" transform="translate(-20.5 342.54) rotate(-76.05)"/>
  <path class="cls-3" d="m0,63.98s38.75-16,73.7-2.49c34.94,13.51,58.61,36.53,52.85,51.42-5.76,14.89-38.75,16-73.7,2.49C17.91,101.89,0,63.98,0,63.98Z"/>
  <path class="cls-1" d="m478.28,105.73s-63.48,83.37-159.77,83.37c-16.43,0-32.33-1.08-47.4-3.1-73.26-9.79-126.96-41.72-126.96-79.6s50.76-68.03,120.92-78.73c16.84-2.57,34.8-3.96,53.44-3.96,96.29,0,159.81,76.7,159.77,82.02Z"/>
  <path class="cls-2" d="m287.41,113.07c0,27.36-5.07,52.66-13.67,73.16-73.54-9.83-127.45-41.88-127.45-79.91s50.96-68.29,121.39-79.03c12.23,22.26,19.74,52.47,19.74,85.78Z"/>
  <circle class="cls-3" cx="401.14" cy="89.11" r="17.96"/>
  <path class="cls-3" d="m256.8,118.44c0,27.26-5.05,52.46-13.62,72.88-73.26-9.79-126.96-41.72-126.96-79.6s50.76-68.03,120.92-78.73c12.18,22.17,19.66,52.27,19.66,85.45Z"/>
</svg>